{"glyphs":{"0":{"ha":389,"x_min":97,"x_max":292,"o":"m 97 69 l 97 903 q 116 953 97 935 q 167 972 135 972 l 222 972 q 273 953 254 972 q 292 903 292 935 l 292 69 q 273 19 292 38 q 222 0 254 0 l 167 0 q 116 19 135 0 q 97 69 97 38 m 167 42 l 222 42 q 250 69 250 42 l 250 903 q 222 931 250 931 l 167 931 q 139 903 139 931 l 139 69 q 167 42 139 42 z "},"1":{"ha":250,"x_min":35,"x_max":146,"o":"m 104 0 l 104 917 l 63 875 l 35 903 l 104 972 l 146 972 l 146 0 l 104 0 z "},"2":{"ha":347,"x_min":56,"x_max":250,"o":"m 208 889 l 208 903 q 181 931 208 931 l 125 931 q 97 903 97 931 l 97 889 l 56 889 l 56 903 q 74 953 56 935 q 125 972 93 972 l 181 972 q 231 953 213 972 q 250 903 250 935 l 250 889 l 104 42 l 250 42 l 250 0 l 56 0 l 208 889 z "},"3":{"ha":347,"x_min":56,"x_max":250,"o":"m 125 972 l 181 972 q 231 953 213 972 q 250 903 250 935 l 250 861 q 232 813 250 833 q 250 764 250 792 l 250 69 q 231 19 250 38 q 181 0 213 0 l 125 0 q 74 19 93 0 q 56 69 56 38 l 56 83 l 97 83 l 97 69 q 125 42 97 42 l 181 42 q 208 69 208 42 l 208 764 q 181 792 208 792 l 139 792 l 139 833 l 181 833 q 208 861 208 833 l 208 903 q 181 931 208 931 l 125 931 q 97 903 97 931 l 97 889 l 56 889 l 56 903 q 74 953 56 935 q 125 972 93 972 z "},"4":{"ha":347,"x_min":56,"x_max":250,"o":"m 56 139 l 208 972 l 250 972 l 250 0 l 208 0 l 208 139 l 56 139 m 104 181 l 208 181 l 208 764 l 104 181 z "},"5":{"ha":347,"x_min":56,"x_max":250,"o":"m 56 972 l 250 972 l 250 931 l 97 931 l 97 833 l 181 833 q 231 815 213 833 q 250 764 250 796 l 250 69 q 231 19 250 38 q 181 0 213 0 l 125 0 q 74 19 93 0 q 56 69 56 38 l 56 83 l 97 83 l 97 69 q 125 42 97 42 l 181 42 q 208 69 208 42 l 208 764 q 181 792 208 792 l 56 792 l 56 972 z "},"6":{"ha":389,"x_min":97,"x_max":292,"o":"m 167 972 l 222 972 q 273 953 254 972 q 292 903 292 935 l 292 889 l 250 889 l 250 903 q 222 931 250 931 l 167 931 q 139 903 139 931 l 139 833 l 222 833 q 273 815 254 833 q 292 764 292 796 l 292 69 q 273 19 292 38 q 222 0 254 0 l 167 0 q 116 19 135 0 q 97 69 97 38 l 97 903 q 116 953 97 935 q 167 972 135 972 m 139 69 q 167 42 139 42 l 222 42 q 250 69 250 42 l 250 764 q 222 792 250 792 l 139 792 l 139 69 z "},"7":{"ha":347,"x_min":56,"x_max":250,"o":"m 132 0 l 208 931 l 97 931 l 97 889 l 56 889 l 56 972 l 250 972 l 174 0 l 132 0 z "},"8":{"ha":389,"x_min":97,"x_max":292,"o":"m 97 903 q 116 953 97 935 q 167 972 135 972 l 222 972 q 273 953 254 972 q 292 903 292 935 l 292 861 q 274 813 292 833 q 292 764 292 792 l 292 69 q 273 19 292 38 q 222 0 254 0 l 167 0 q 116 19 135 0 q 97 69 97 38 l 97 764 q 115 813 97 792 q 97 861 97 833 l 97 903 m 167 42 l 222 42 q 250 69 250 42 l 250 764 q 222 792 250 792 l 167 792 q 139 764 139 792 l 139 69 q 167 42 139 42 m 167 833 l 222 833 q 250 861 250 833 l 250 903 q 222 931 250 931 l 167 931 q 139 903 139 931 l 139 861 q 167 833 139 833 z "},"9":{"ha":389,"x_min":97,"x_max":292,"o":"m 97 903 q 116 953 97 935 q 167 972 135 972 l 222 972 q 273 953 254 972 q 292 903 292 935 l 292 69 q 273 19 292 38 q 222 0 254 0 l 167 0 q 116 19 135 0 q 97 69 97 38 l 97 83 l 139 83 l 139 69 q 167 42 139 42 l 222 42 q 250 69 250 42 l 250 139 l 167 139 q 116 158 135 139 q 97 208 97 176 l 97 903 m 139 903 l 139 208 q 167 181 139 181 l 250 181 l 250 903 q 222 931 250 931 l 167 931 q 139 903 139 931 z "},"\u0000":{"ha":0,"x_min":0,"x_max":0,"o":""},"\r":{"ha":347,"x_min":0,"x_max":0,"o":""}," ":{"ha":389,"x_min":0,"x_max":0,"o":""},"А":{"ha":389,"x_min":97,"x_max":292,"o":"m 97 0 l 174 972 l 215 972 l 292 0 l 250 0 l 239 139 l 150 139 l 139 0 l 97 0 m 236 181 l 194 694 l 153 181 l 236 181 z "},"Б":{"ha":389,"x_min":97,"x_max":292,"o":"m 292 972 l 292 931 l 139 931 l 139 833 l 222 833 q 273 815 254 833 q 292 764 292 796 l 292 69 q 273 19 292 38 q 222 0 254 0 l 97 0 l 97 972 l 292 972 m 222 42 q 250 69 250 42 l 250 764 q 222 792 250 792 l 139 792 l 139 42 l 222 42 z "},"В":{"ha":389,"x_min":97,"x_max":292,"o":"m 97 972 l 222 972 q 273 953 254 972 q 292 903 292 935 l 292 861 q 274 813 292 833 q 292 764 292 792 l 292 69 q 273 19 292 38 q 222 0 254 0 l 97 0 l 97 972 m 139 792 l 139 42 l 222 42 q 250 69 250 42 l 250 764 q 222 792 250 792 l 139 792 m 139 931 l 139 833 l 222 833 q 250 861 250 833 l 250 903 q 222 931 250 931 l 139 931 z "},"Г":{"ha":347,"x_min":97,"x_max":292,"o":"m 97 0 l 97 972 l 292 972 l 292 931 l 139 931 l 139 0 l 97 0 z "},"Д":{"ha":389,"x_min":56,"x_max":333,"o":"m 100 42 l 174 972 l 215 972 l 289 42 l 333 42 l 333 -42 l 292 -42 l 292 0 l 97 0 l 97 -42 l 56 -42 l 56 42 l 100 42 m 247 42 l 194 694 l 142 42 l 247 42 z "},"Е":{"ha":347,"x_min":97,"x_max":292,"o":"m 292 972 l 292 931 l 139 931 l 139 833 l 250 833 l 250 792 l 139 792 l 139 42 l 292 42 l 292 0 l 97 0 l 97 972 l 292 972 z "},"Ё":{"ha":347,"x_min":97,"x_max":292,"o":"m 97 972 l 292 972 l 292 931 l 139 931 l 139 833 l 250 833 l 250 792 l 139 792 l 139 42 l 292 42 l 292 0 l 97 0 l 97 972 m 250 1056 l 250 1014 l 208 1014 l 208 1056 l 250 1056 m 139 1014 l 139 1056 l 181 1056 l 181 1014 l 139 1014 z "},"Ж":{"ha":486,"x_min":97,"x_max":389,"o":"m 97 0 l 97 972 l 139 972 l 139 139 l 222 139 l 222 972 l 264 972 l 264 139 l 347 139 l 347 972 l 389 972 l 389 0 l 347 0 l 347 97 l 264 97 l 264 0 l 222 0 l 222 97 l 139 97 l 139 0 l 97 0 z "},"З":{"ha":347,"x_min":56,"x_max":250,"o":"m 125 972 l 181 972 q 231 953 213 972 q 250 903 250 935 l 250 861 q 232 813 250 833 q 250 764 250 792 l 250 69 q 231 19 250 38 q 181 0 213 0 l 125 0 q 74 19 93 0 q 56 69 56 38 l 56 83 l 97 83 l 97 69 q 125 42 97 42 l 181 42 q 208 69 208 42 l 208 764 q 181 792 208 792 l 139 792 l 139 833 l 181 833 q 208 861 208 833 l 208 903 q 181 931 208 931 l 125 931 q 97 903 97 931 l 97 889 l 56 889 l 56 903 q 74 953 56 935 q 125 972 93 972 z "},"И":{"ha":389,"x_min":97,"x_max":292,"o":"m 139 972 l 139 56 l 250 111 l 250 972 l 292 972 l 292 0 l 250 0 l 250 63 l 97 -14 l 97 972 l 139 972 z "},"Й":{"ha":389,"x_min":97,"x_max":292,"o":"m 97 972 l 139 972 l 139 56 l 250 111 l 250 972 l 292 972 l 292 0 l 250 0 l 250 63 l 97 -14 l 97 972 m 250 1056 l 250 1014 l 139 1014 l 139 1056 l 250 1056 z "},"К":{"ha":389,"x_min":97,"x_max":292,"o":"m 97 0 l 97 972 l 139 972 l 139 181 l 222 181 q 250 208 250 181 l 250 972 l 292 972 l 292 208 q 273 158 292 176 q 222 139 254 139 l 292 0 l 243 0 l 174 139 l 139 139 l 139 0 l 97 0 z "},"Л":{"ha":389,"x_min":97,"x_max":292,"o":"m 174 972 l 215 972 l 292 0 l 250 0 l 194 694 l 139 0 l 97 0 l 174 972 z "},"М":{"ha":486,"x_min":97,"x_max":389,"o":"m 139 972 l 243 174 l 347 972 l 389 972 l 389 0 l 347 0 l 347 660 l 264 0 l 222 0 l 139 660 l 139 0 l 97 0 l 97 972 l 139 972 z "},"Н":{"ha":389,"x_min":97,"x_max":292,"o":"m 139 972 l 139 833 l 250 833 l 250 972 l 292 972 l 292 0 l 250 0 l 250 792 l 139 792 l 139 0 l 97 0 l 97 972 l 139 972 z "},"О":{"ha":389,"x_min":97,"x_max":292,"o":"m 97 69 l 97 903 q 116 953 97 935 q 167 972 135 972 l 222 972 q 273 953 254 972 q 292 903 292 935 l 292 69 q 273 19 292 38 q 222 0 254 0 l 167 0 q 116 19 135 0 q 97 69 97 38 m 167 42 l 222 42 q 250 69 250 42 l 250 903 q 222 931 250 931 l 167 931 q 139 903 139 931 l 139 69 q 167 42 139 42 z "},"П":{"ha":389,"x_min":97,"x_max":292,"o":"m 292 972 l 292 0 l 250 0 l 250 931 l 139 931 l 139 0 l 97 0 l 97 972 l 292 972 z "},"Р":{"ha":389,"x_min":97,"x_max":292,"o":"m 97 972 l 222 972 q 273 953 254 972 q 292 903 292 935 l 292 208 q 273 158 292 176 q 222 139 254 139 l 139 139 l 139 0 l 97 0 l 97 972 m 222 181 q 250 208 250 181 l 250 903 q 222 931 250 931 l 139 931 l 139 181 l 222 181 z "},"С":{"ha":347,"x_min":97,"x_max":292,"o":"m 167 972 l 222 972 q 273 953 254 972 q 292 903 292 935 l 292 889 l 250 889 l 250 903 q 222 931 250 931 l 167 931 q 139 903 139 931 l 139 69 q 167 42 139 42 l 222 42 q 250 69 250 42 l 250 83 l 292 83 l 292 69 q 273 19 292 38 q 222 0 254 0 l 167 0 q 116 19 135 0 q 97 69 97 38 l 97 903 q 116 953 97 935 q 167 972 135 972 z "},"Т":{"ha":306,"x_min":56,"x_max":250,"o":"m 56 972 l 250 972 l 250 931 l 174 931 l 174 0 l 132 0 l 132 931 l 56 931 l 56 972 z "},"У":{"ha":389,"x_min":97,"x_max":292,"o":"m 97 42 l 222 42 q 250 69 250 42 l 250 139 l 167 139 q 116 158 135 139 q 97 208 97 176 l 97 972 l 139 972 l 139 208 q 167 181 139 181 l 250 181 l 250 972 l 292 972 l 292 69 q 273 19 292 38 q 222 0 254 0 l 97 0 l 97 42 z "},"Ф":{"ha":486,"x_min":97,"x_max":389,"o":"m 97 111 l 97 861 q 116 912 97 893 q 167 931 135 931 l 222 931 l 222 972 l 264 972 l 264 931 l 319 931 q 370 912 351 931 q 389 861 389 893 l 389 111 q 370 60 389 79 q 319 42 351 42 l 264 42 l 264 0 l 222 0 l 222 42 l 167 42 q 116 60 135 42 q 97 111 97 79 m 264 889 l 264 83 l 319 83 q 347 111 347 83 l 347 861 q 319 889 347 889 l 264 889 m 167 83 l 222 83 l 222 889 l 167 889 q 139 861 139 889 l 139 111 q 167 83 139 83 z "},"Х":{"ha":389,"x_min":97,"x_max":292,"o":"m 97 0 l 174 486 l 97 972 l 139 972 l 194 625 l 250 972 l 292 972 l 215 486 l 292 0 l 250 0 l 194 347 l 139 0 l 97 0 z "},"Ц":{"ha":389,"x_min":97,"x_max":333,"o":"m 139 972 l 139 42 l 250 42 l 250 972 l 292 972 l 292 42 l 333 42 l 333 -42 l 292 -42 l 292 0 l 97 0 l 97 972 l 139 972 z "},"Ч":{"ha":389,"x_min":97,"x_max":292,"o":"m 97 972 l 139 972 l 139 208 q 167 181 139 181 l 250 181 l 250 972 l 292 972 l 292 0 l 250 0 l 250 139 l 167 139 q 116 158 135 139 q 97 208 97 176 l 97 972 z "},"Ш":{"ha":486,"x_min":97,"x_max":389,"o":"m 97 0 l 97 972 l 139 972 l 139 42 l 222 42 l 222 972 l 264 972 l 264 42 l 347 42 l 347 972 l 389 972 l 389 0 l 97 0 z "},"Щ":{"ha":486,"x_min":97,"x_max":431,"o":"m 139 972 l 139 42 l 222 42 l 222 972 l 264 972 l 264 42 l 347 42 l 347 972 l 389 972 l 389 42 l 431 42 l 431 -42 l 389 -42 l 389 0 l 97 0 l 97 972 l 139 972 z "},"Ъ":{"ha":389,"x_min":56,"x_max":292,"o":"m 56 972 l 139 972 l 139 833 l 222 833 q 273 815 254 833 q 292 764 292 796 l 292 56 q 276 15 292 31 q 236 0 261 0 l 97 0 l 97 931 l 56 931 l 56 972 m 139 792 l 139 42 l 222 42 q 250 69 250 42 l 250 764 q 222 792 250 792 l 139 792 z "},"Ы":{"ha":486,"x_min":97,"x_max":389,"o":"m 97 972 l 139 972 l 139 833 l 194 833 q 245 815 226 833 q 264 764 264 796 l 264 56 q 249 15 264 31 q 208 0 233 0 l 97 0 l 97 972 m 139 792 l 139 42 l 194 42 q 222 69 222 42 l 222 764 q 194 792 222 792 l 139 792 m 389 972 l 389 0 l 347 0 l 347 972 l 389 972 z "},"Ь":{"ha":389,"x_min":97,"x_max":292,"o":"m 97 972 l 139 972 l 139 833 l 222 833 q 273 815 254 833 q 292 764 292 796 l 292 56 q 276 15 292 31 q 236 0 261 0 l 97 0 l 97 972 m 139 792 l 139 42 l 222 42 q 250 69 250 42 l 250 764 q 222 792 250 792 l 139 792 z "},"Э":{"ha":347,"x_min":56,"x_max":250,"o":"m 125 972 l 181 972 q 231 953 213 972 q 250 903 250 935 l 250 69 q 231 19 250 38 q 181 0 213 0 l 125 0 q 74 19 93 0 q 56 69 56 38 l 56 83 l 97 83 l 97 69 q 125 42 97 42 l 181 42 q 208 69 208 42 l 208 792 l 139 792 l 139 833 l 208 833 l 208 903 q 181 931 208 931 l 125 931 q 97 903 97 931 l 97 889 l 56 889 l 56 903 q 74 953 56 935 q 125 972 93 972 z "},"Ю":{"ha":486,"x_min":97,"x_max":389,"o":"m 139 972 l 139 833 l 222 833 l 222 903 q 241 953 222 935 q 292 972 260 972 l 319 972 q 370 953 351 972 q 389 903 389 935 l 389 69 q 370 19 389 38 q 319 0 351 0 l 292 0 q 241 19 260 0 q 222 69 222 38 l 222 792 l 139 792 l 139 0 l 97 0 l 97 972 l 139 972 m 264 903 l 264 69 q 292 42 264 42 l 319 42 q 347 69 347 42 l 347 903 q 319 931 347 931 l 292 931 q 264 903 264 931 z "},"Я":{"ha":389,"x_min":97,"x_max":292,"o":"m 97 903 q 116 953 97 935 q 167 972 135 972 l 292 972 l 292 0 l 250 0 l 250 139 l 215 139 l 146 0 l 97 0 l 167 139 q 116 158 135 139 q 97 208 97 176 l 97 903 m 139 208 q 167 181 139 181 l 250 181 l 250 931 l 167 931 q 139 903 139 931 l 139 208 z "},"A":{"ha":389,"x_min":97,"x_max":292,"o":"m 97 0 l 174 972 l 215 972 l 292 0 l 250 0 l 239 139 l 150 139 l 139 0 l 97 0 m 236 181 l 194 694 l 153 181 l 236 181 z "},"B":{"ha":389,"x_min":97,"x_max":292,"o":"m 97 972 l 222 972 q 273 953 254 972 q 292 903 292 935 l 292 861 q 274 813 292 833 q 292 764 292 792 l 292 69 q 273 19 292 38 q 222 0 254 0 l 97 0 l 97 972 m 139 792 l 139 42 l 222 42 q 250 69 250 42 l 250 764 q 222 792 250 792 l 139 792 m 139 931 l 139 833 l 222 833 q 250 861 250 833 l 250 903 q 222 931 250 931 l 139 931 z "},"C":{"ha":347,"x_min":97,"x_max":292,"o":"m 167 972 l 222 972 q 273 953 254 972 q 292 903 292 935 l 292 889 l 250 889 l 250 903 q 222 931 250 931 l 167 931 q 139 903 139 931 l 139 69 q 167 42 139 42 l 222 42 q 250 69 250 42 l 250 83 l 292 83 l 292 69 q 273 19 292 38 q 222 0 254 0 l 167 0 q 116 19 135 0 q 97 69 97 38 l 97 903 q 116 953 97 935 q 167 972 135 972 z "},"D":{"ha":389,"x_min":97,"x_max":292,"o":"m 97 0 l 97 972 l 222 972 q 273 953 254 972 q 292 903 292 935 l 292 69 q 273 19 292 38 q 222 0 254 0 l 97 0 m 222 42 q 250 69 250 42 l 250 903 q 222 931 250 931 l 139 931 l 139 42 l 222 42 z "},"E":{"ha":347,"x_min":97,"x_max":292,"o":"m 292 972 l 292 931 l 139 931 l 139 833 l 250 833 l 250 792 l 139 792 l 139 42 l 292 42 l 292 0 l 97 0 l 97 972 l 292 972 z "},"F":{"ha":347,"x_min":97,"x_max":292,"o":"m 292 972 l 292 931 l 139 931 l 139 833 l 250 833 l 250 792 l 139 792 l 139 0 l 97 0 l 97 972 l 292 972 z "},"G":{"ha":389,"x_min":97,"x_max":292,"o":"m 167 972 l 222 972 q 273 953 254 972 q 292 903 292 935 l 292 889 l 250 889 l 250 903 q 222 931 250 931 l 167 931 q 139 903 139 931 l 139 69 q 167 42 139 42 l 222 42 q 250 69 250 42 l 250 792 l 208 792 l 208 833 l 292 833 l 292 69 q 273 19 292 38 q 222 0 254 0 l 167 0 q 116 19 135 0 q 97 69 97 38 l 97 903 q 116 953 97 935 q 167 972 135 972 z "},"H":{"ha":389,"x_min":97,"x_max":292,"o":"m 139 972 l 139 833 l 250 833 l 250 972 l 292 972 l 292 0 l 250 0 l 250 792 l 139 792 l 139 0 l 97 0 l 97 972 l 139 972 z "},"I":{"ha":250,"x_min":104,"x_max":146,"o":"m 104 0 l 104 972 l 146 972 l 146 0 l 104 0 z "},"J":{"ha":347,"x_min":56,"x_max":250,"o":"m 56 69 l 56 83 l 97 83 l 97 69 q 125 42 97 42 l 181 42 q 208 69 208 42 l 208 972 l 250 972 l 250 69 q 231 19 250 38 q 181 0 213 0 l 125 0 q 74 19 93 0 q 56 69 56 38 z "},"K":{"ha":389,"x_min":97,"x_max":292,"o":"m 97 0 l 97 972 l 139 972 l 139 181 l 222 181 q 250 208 250 181 l 250 972 l 292 972 l 292 208 q 273 158 292 176 q 222 139 254 139 l 292 0 l 243 0 l 174 139 l 139 139 l 139 0 l 97 0 z "},"L":{"ha":347,"x_min":97,"x_max":292,"o":"m 97 0 l 97 972 l 139 972 l 139 42 l 292 42 l 292 0 l 97 0 z "},"M":{"ha":486,"x_min":97,"x_max":389,"o":"m 139 972 l 243 174 l 347 972 l 389 972 l 389 0 l 347 0 l 347 660 l 264 0 l 222 0 l 139 660 l 139 0 l 97 0 l 97 972 l 139 972 z "},"N":{"ha":389,"x_min":97,"x_max":292,"o":"m 250 910 l 250 972 l 292 972 l 292 0 l 250 0 l 250 861 l 139 917 l 139 0 l 97 0 l 97 986 l 250 910 z "},"O":{"ha":389,"x_min":97,"x_max":292,"o":"m 97 69 l 97 903 q 116 953 97 935 q 167 972 135 972 l 222 972 q 273 953 254 972 q 292 903 292 935 l 292 69 q 273 19 292 38 q 222 0 254 0 l 167 0 q 116 19 135 0 q 97 69 97 38 m 167 42 l 222 42 q 250 69 250 42 l 250 903 q 222 931 250 931 l 167 931 q 139 903 139 931 l 139 69 q 167 42 139 42 z "},"P":{"ha":389,"x_min":97,"x_max":292,"o":"m 97 972 l 222 972 q 273 953 254 972 q 292 903 292 935 l 292 208 q 273 158 292 176 q 222 139 254 139 l 139 139 l 139 0 l 97 0 l 97 972 m 222 181 q 250 208 250 181 l 250 903 q 222 931 250 931 l 139 931 l 139 181 l 222 181 z "},"Q":{"ha":389,"x_min":97,"x_max":292,"o":"m 97 903 q 116 953 97 935 q 167 972 135 972 l 222 972 q 273 953 254 972 q 292 903 292 935 l 292 69 q 278 26 292 43 q 242 3 265 8 l 264 -42 l 215 -42 l 194 0 l 167 0 q 116 19 135 0 q 97 69 97 38 l 97 903 m 139 903 l 139 69 q 167 42 139 42 l 222 42 q 250 69 250 42 l 250 903 q 222 931 250 931 l 167 931 q 139 903 139 931 z "},"R":{"ha":389,"x_min":97,"x_max":292,"o":"m 97 972 l 222 972 q 273 953 254 972 q 292 903 292 935 l 292 208 q 273 158 292 176 q 222 139 254 139 l 292 0 l 243 0 l 174 139 l 139 139 l 139 0 l 97 0 l 97 972 m 222 181 q 250 208 250 181 l 250 903 q 222 931 250 931 l 139 931 l 139 181 l 222 181 z "},"S":{"ha":389,"x_min":97,"x_max":292,"o":"m 97 903 q 116 953 97 935 q 167 972 135 972 l 222 972 q 273 953 254 972 q 292 903 292 935 l 292 889 l 250 889 l 250 903 q 222 931 250 931 l 167 931 q 139 903 139 931 l 139 889 l 292 83 l 292 69 q 273 19 292 38 q 222 0 254 0 l 167 0 q 116 19 135 0 q 97 69 97 38 l 97 83 l 139 83 l 139 69 q 167 42 139 42 l 222 42 q 250 69 250 42 l 250 83 l 97 889 l 97 903 z "},"T":{"ha":306,"x_min":56,"x_max":250,"o":"m 56 972 l 250 972 l 250 931 l 174 931 l 174 0 l 132 0 l 132 931 l 56 931 l 56 972 z "},"U":{"ha":389,"x_min":97,"x_max":292,"o":"m 97 69 l 97 972 l 139 972 l 139 69 q 167 42 139 42 l 222 42 q 250 69 250 42 l 250 972 l 292 972 l 292 69 q 273 19 292 38 q 222 0 254 0 l 167 0 q 116 19 135 0 q 97 69 97 38 z "},"V":{"ha":389,"x_min":97,"x_max":292,"o":"m 97 972 l 139 972 l 194 278 l 250 972 l 292 972 l 215 0 l 174 0 l 97 972 z "},"W":{"ha":486,"x_min":97,"x_max":389,"o":"m 97 972 l 139 972 l 181 278 l 222 972 l 264 972 l 306 278 l 347 972 l 389 972 l 326 0 l 285 0 l 243 649 l 201 0 l 160 0 l 97 972 z "},"X":{"ha":389,"x_min":97,"x_max":292,"o":"m 97 0 l 174 486 l 97 972 l 139 972 l 194 625 l 250 972 l 292 972 l 215 486 l 292 0 l 250 0 l 194 347 l 139 0 l 97 0 z "},"Y":{"ha":389,"x_min":97,"x_max":292,"o":"m 139 972 l 194 486 l 250 972 l 292 972 l 215 278 l 215 0 l 174 0 l 174 278 l 97 972 l 139 972 z "},"Z":{"ha":389,"x_min":97,"x_max":292,"o":"m 97 0 l 243 931 l 97 931 l 97 972 l 292 972 l 146 42 l 292 42 l 292 0 l 97 0 z "},".":{"ha":111,"x_min":35,"x_max":76,"o":"m 35 0 l 35 42 l 76 42 l 76 0 l 35 0 z "},",":{"ha":111,"x_min":35,"x_max":76,"o":"m 35 -42 l 35 42 l 76 42 l 76 0 l 63 -42 l 35 -42 z "},":":{"ha":111,"x_min":35,"x_max":76,"o":"m 35 0 l 35 42 l 76 42 l 76 0 l 35 0 m 76 319 l 76 278 l 35 278 l 35 319 l 76 319 z "},";":{"ha":111,"x_min":35,"x_max":76,"o":"m 35 -42 l 35 42 l 76 42 l 76 0 l 56 -42 l 35 -42 m 76 319 l 76 278 l 35 278 l 35 319 l 76 319 z "},"-":{"ha":306,"x_min":56,"x_max":250,"o":"m 56 333 l 56 375 l 250 375 l 250 333 l 56 333 z "},"!":{"ha":250,"x_min":104,"x_max":146,"o":"m 146 972 l 146 139 l 104 139 l 104 972 l 146 972 m 104 0 l 104 42 l 146 42 l 146 0 l 104 0 z "},"?":{"ha":292,"x_min":28,"x_max":222,"o":"m 28 889 l 28 903 q 47 953 28 935 q 97 972 65 972 l 153 972 q 203 953 185 972 q 222 903 222 935 l 222 833 l 146 179 l 146 139 l 104 139 l 104 181 l 181 833 l 181 903 q 153 931 181 931 l 97 931 q 69 903 69 931 l 69 889 l 28 889 m 146 42 l 146 0 l 104 0 l 104 42 l 146 42 z "},"(":{"ha":194,"x_min":40,"x_max":139,"o":"m 61 760 l 97 972 l 139 972 l 103 760 q 88 628 93 699 q 82 486 82 558 q 88 344 82 414 q 103 213 93 274 l 139 0 l 97 0 l 61 213 q 46 344 51 274 q 40 486 40 414 q 46 628 40 558 q 61 760 51 699 z "},")":{"ha":194,"x_min":56,"x_max":154,"o":"m 97 972 l 133 760 q 149 628 144 699 q 154 486 154 558 q 149 344 154 414 q 133 213 144 274 l 97 0 l 56 0 l 92 213 q 108 344 103 274 q 113 486 113 414 q 108 628 113 558 q 92 760 103 699 l 56 972 l 97 972 z "},"_":{"ha":194,"x_min":0,"x_max":194,"o":"m 0 -125 l 0 -83 l 194 -83 l 194 -125 l 0 -125 z "},"–":{"ha":389,"x_min":56,"x_max":333,"o":"m 56 333 l 56 375 l 333 375 l 333 333 l 56 333 z "},"—":{"ha":486,"x_min":21,"x_max":465,"o":"m 21 333 l 21 375 l 465 375 l 465 333 l 21 333 z "},"«":{"ha":319,"x_min":56,"x_max":292,"o":"m 167 486 l 250 764 l 292 764 l 208 486 l 292 208 l 250 208 l 167 486 m 139 764 l 181 764 l 97 486 l 181 208 l 139 208 l 56 486 l 139 764 z "},"»":{"ha":319,"x_min":28,"x_max":264,"o":"m 28 764 l 69 764 l 153 486 l 69 208 l 28 208 l 111 486 l 28 764 m 139 210 l 222 486 l 139 764 l 181 764 l 264 486 l 181 210 l 139 210 z "},"₽":{"ha":389,"x_min":56,"x_max":292,"o":"m 97 139 l 97 181 l 56 181 l 56 222 l 97 222 l 97 972 l 222 972 q 273 953 254 972 q 292 903 292 935 l 292 250 q 273 199 292 218 q 222 181 254 181 l 139 181 l 139 139 l 250 139 l 250 97 l 139 97 l 139 0 l 97 0 l 97 97 l 56 97 l 56 139 l 97 139 m 222 222 q 250 250 250 222 l 250 903 q 222 931 250 931 l 139 931 l 139 222 l 222 222 z "},"а":{"ha":389,"x_min":97,"x_max":292,"o":"m 97 0 l 174 972 l 215 972 l 292 0 l 250 0 l 239 139 l 150 139 l 139 0 l 97 0 m 236 181 l 194 694 l 153 181 l 236 181 z "},"б":{"ha":389,"x_min":97,"x_max":292,"o":"m 292 972 l 292 931 l 139 931 l 139 833 l 222 833 q 273 815 254 833 q 292 764 292 796 l 292 69 q 273 19 292 38 q 222 0 254 0 l 97 0 l 97 972 l 292 972 m 222 42 q 250 69 250 42 l 250 764 q 222 792 250 792 l 139 792 l 139 42 l 222 42 z "},"в":{"ha":389,"x_min":97,"x_max":292,"o":"m 97 972 l 222 972 q 273 953 254 972 q 292 903 292 935 l 292 861 q 274 813 292 833 q 292 764 292 792 l 292 69 q 273 19 292 38 q 222 0 254 0 l 97 0 l 97 972 m 139 792 l 139 42 l 222 42 q 250 69 250 42 l 250 764 q 222 792 250 792 l 139 792 m 139 931 l 139 833 l 222 833 q 250 861 250 833 l 250 903 q 222 931 250 931 l 139 931 z "},"г":{"ha":347,"x_min":97,"x_max":292,"o":"m 97 0 l 97 972 l 292 972 l 292 931 l 139 931 l 139 0 l 97 0 z "},"д":{"ha":389,"x_min":56,"x_max":333,"o":"m 100 42 l 174 972 l 215 972 l 289 42 l 333 42 l 333 -42 l 292 -42 l 292 0 l 97 0 l 97 -42 l 56 -42 l 56 42 l 100 42 m 247 42 l 194 694 l 142 42 l 247 42 z "},"е":{"ha":347,"x_min":97,"x_max":292,"o":"m 292 972 l 292 931 l 139 931 l 139 833 l 250 833 l 250 792 l 139 792 l 139 42 l 292 42 l 292 0 l 97 0 l 97 972 l 292 972 z "},"ё":{"ha":347,"x_min":97,"x_max":292,"o":"m 97 972 l 292 972 l 292 931 l 139 931 l 139 833 l 250 833 l 250 792 l 139 792 l 139 42 l 292 42 l 292 0 l 97 0 l 97 972 m 250 1056 l 250 1014 l 208 1014 l 208 1056 l 250 1056 m 139 1014 l 139 1056 l 181 1056 l 181 1014 l 139 1014 z "},"ж":{"ha":486,"x_min":97,"x_max":389,"o":"m 97 0 l 97 972 l 139 972 l 139 139 l 222 139 l 222 972 l 264 972 l 264 139 l 347 139 l 347 972 l 389 972 l 389 0 l 347 0 l 347 97 l 264 97 l 264 0 l 222 0 l 222 97 l 139 97 l 139 0 l 97 0 z "},"з":{"ha":347,"x_min":56,"x_max":250,"o":"m 125 972 l 181 972 q 231 953 213 972 q 250 903 250 935 l 250 861 q 232 813 250 833 q 250 764 250 792 l 250 69 q 231 19 250 38 q 181 0 213 0 l 125 0 q 74 19 93 0 q 56 69 56 38 l 56 83 l 97 83 l 97 69 q 125 42 97 42 l 181 42 q 208 69 208 42 l 208 764 q 181 792 208 792 l 139 792 l 139 833 l 181 833 q 208 861 208 833 l 208 903 q 181 931 208 931 l 125 931 q 97 903 97 931 l 97 889 l 56 889 l 56 903 q 74 953 56 935 q 125 972 93 972 z "},"и":{"ha":389,"x_min":97,"x_max":292,"o":"m 139 972 l 139 56 l 250 111 l 250 972 l 292 972 l 292 0 l 250 0 l 250 63 l 97 -14 l 97 972 l 139 972 z "},"й":{"ha":389,"x_min":97,"x_max":292,"o":"m 97 972 l 139 972 l 139 56 l 250 111 l 250 972 l 292 972 l 292 0 l 250 0 l 250 63 l 97 -14 l 97 972 m 250 1056 l 250 1014 l 139 1014 l 139 1056 l 250 1056 z "},"к":{"ha":389,"x_min":97,"x_max":292,"o":"m 97 0 l 97 972 l 139 972 l 139 181 l 222 181 q 250 208 250 181 l 250 972 l 292 972 l 292 208 q 273 158 292 176 q 222 139 254 139 l 292 0 l 243 0 l 174 139 l 139 139 l 139 0 l 97 0 z "},"л":{"ha":389,"x_min":97,"x_max":292,"o":"m 174 972 l 215 972 l 292 0 l 250 0 l 194 694 l 139 0 l 97 0 l 174 972 z "},"м":{"ha":486,"x_min":97,"x_max":389,"o":"m 139 972 l 243 174 l 347 972 l 389 972 l 389 0 l 347 0 l 347 660 l 264 0 l 222 0 l 139 660 l 139 0 l 97 0 l 97 972 l 139 972 z "},"н":{"ha":389,"x_min":97,"x_max":292,"o":"m 139 972 l 139 833 l 250 833 l 250 972 l 292 972 l 292 0 l 250 0 l 250 792 l 139 792 l 139 0 l 97 0 l 97 972 l 139 972 z "},"о":{"ha":389,"x_min":97,"x_max":292,"o":"m 97 69 l 97 903 q 116 953 97 935 q 167 972 135 972 l 222 972 q 273 953 254 972 q 292 903 292 935 l 292 69 q 273 19 292 38 q 222 0 254 0 l 167 0 q 116 19 135 0 q 97 69 97 38 m 167 42 l 222 42 q 250 69 250 42 l 250 903 q 222 931 250 931 l 167 931 q 139 903 139 931 l 139 69 q 167 42 139 42 z "},"п":{"ha":389,"x_min":97,"x_max":292,"o":"m 292 972 l 292 0 l 250 0 l 250 931 l 139 931 l 139 0 l 97 0 l 97 972 l 292 972 z "},"р":{"ha":389,"x_min":97,"x_max":292,"o":"m 97 972 l 222 972 q 273 953 254 972 q 292 903 292 935 l 292 208 q 273 158 292 176 q 222 139 254 139 l 139 139 l 139 0 l 97 0 l 97 972 m 222 181 q 250 208 250 181 l 250 903 q 222 931 250 931 l 139 931 l 139 181 l 222 181 z "},"с":{"ha":347,"x_min":97,"x_max":292,"o":"m 167 972 l 222 972 q 273 953 254 972 q 292 903 292 935 l 292 889 l 250 889 l 250 903 q 222 931 250 931 l 167 931 q 139 903 139 931 l 139 69 q 167 42 139 42 l 222 42 q 250 69 250 42 l 250 83 l 292 83 l 292 69 q 273 19 292 38 q 222 0 254 0 l 167 0 q 116 19 135 0 q 97 69 97 38 l 97 903 q 116 953 97 935 q 167 972 135 972 z "},"т":{"ha":306,"x_min":56,"x_max":250,"o":"m 56 972 l 250 972 l 250 931 l 174 931 l 174 0 l 132 0 l 132 931 l 56 931 l 56 972 z "},"у":{"ha":389,"x_min":97,"x_max":292,"o":"m 97 42 l 222 42 q 250 69 250 42 l 250 139 l 167 139 q 116 158 135 139 q 97 208 97 176 l 97 972 l 139 972 l 139 208 q 167 181 139 181 l 250 181 l 250 972 l 292 972 l 292 69 q 273 19 292 38 q 222 0 254 0 l 97 0 l 97 42 z "},"ф":{"ha":486,"x_min":97,"x_max":389,"o":"m 97 111 l 97 861 q 116 912 97 893 q 167 931 135 931 l 222 931 l 222 972 l 264 972 l 264 931 l 319 931 q 370 912 351 931 q 389 861 389 893 l 389 111 q 370 60 389 79 q 319 42 351 42 l 264 42 l 264 0 l 222 0 l 222 42 l 167 42 q 116 60 135 42 q 97 111 97 79 m 264 889 l 264 83 l 319 83 q 347 111 347 83 l 347 861 q 319 889 347 889 l 264 889 m 167 83 l 222 83 l 222 889 l 167 889 q 139 861 139 889 l 139 111 q 167 83 139 83 z "},"х":{"ha":389,"x_min":97,"x_max":292,"o":"m 97 0 l 174 486 l 97 972 l 139 972 l 194 625 l 250 972 l 292 972 l 215 486 l 292 0 l 250 0 l 194 347 l 139 0 l 97 0 z "},"ц":{"ha":389,"x_min":97,"x_max":333,"o":"m 139 972 l 139 42 l 250 42 l 250 972 l 292 972 l 292 42 l 333 42 l 333 -42 l 292 -42 l 292 0 l 97 0 l 97 972 l 139 972 z "},"ч":{"ha":389,"x_min":97,"x_max":292,"o":"m 97 972 l 139 972 l 139 208 q 167 181 139 181 l 250 181 l 250 972 l 292 972 l 292 0 l 250 0 l 250 139 l 167 139 q 116 158 135 139 q 97 208 97 176 l 97 972 z "},"ш":{"ha":486,"x_min":97,"x_max":389,"o":"m 97 0 l 97 972 l 139 972 l 139 42 l 222 42 l 222 972 l 264 972 l 264 42 l 347 42 l 347 972 l 389 972 l 389 0 l 97 0 z "},"щ":{"ha":486,"x_min":97,"x_max":431,"o":"m 139 972 l 139 42 l 222 42 l 222 972 l 264 972 l 264 42 l 347 42 l 347 972 l 389 972 l 389 42 l 431 42 l 431 -42 l 389 -42 l 389 0 l 97 0 l 97 972 l 139 972 z "},"ъ":{"ha":389,"x_min":56,"x_max":292,"o":"m 56 972 l 139 972 l 139 833 l 222 833 q 273 815 254 833 q 292 764 292 796 l 292 56 q 276 15 292 31 q 236 0 261 0 l 97 0 l 97 931 l 56 931 l 56 972 m 139 792 l 139 42 l 222 42 q 250 69 250 42 l 250 764 q 222 792 250 792 l 139 792 z "},"ы":{"ha":486,"x_min":97,"x_max":389,"o":"m 97 972 l 139 972 l 139 833 l 194 833 q 245 815 226 833 q 264 764 264 796 l 264 56 q 249 15 264 31 q 208 0 233 0 l 97 0 l 97 972 m 139 792 l 139 42 l 194 42 q 222 69 222 42 l 222 764 q 194 792 222 792 l 139 792 m 389 972 l 389 0 l 347 0 l 347 972 l 389 972 z "},"ь":{"ha":389,"x_min":97,"x_max":292,"o":"m 97 972 l 139 972 l 139 833 l 222 833 q 273 815 254 833 q 292 764 292 796 l 292 56 q 276 15 292 31 q 236 0 261 0 l 97 0 l 97 972 m 139 792 l 139 42 l 222 42 q 250 69 250 42 l 250 764 q 222 792 250 792 l 139 792 z "},"э":{"ha":347,"x_min":56,"x_max":250,"o":"m 125 972 l 181 972 q 231 953 213 972 q 250 903 250 935 l 250 69 q 231 19 250 38 q 181 0 213 0 l 125 0 q 74 19 93 0 q 56 69 56 38 l 56 83 l 97 83 l 97 69 q 125 42 97 42 l 181 42 q 208 69 208 42 l 208 792 l 139 792 l 139 833 l 208 833 l 208 903 q 181 931 208 931 l 125 931 q 97 903 97 931 l 97 889 l 56 889 l 56 903 q 74 953 56 935 q 125 972 93 972 z "},"ю":{"ha":486,"x_min":97,"x_max":389,"o":"m 139 972 l 139 833 l 222 833 l 222 903 q 241 953 222 935 q 292 972 260 972 l 319 972 q 370 953 351 972 q 389 903 389 935 l 389 69 q 370 19 389 38 q 319 0 351 0 l 292 0 q 241 19 260 0 q 222 69 222 38 l 222 792 l 139 792 l 139 0 l 97 0 l 97 972 l 139 972 m 264 903 l 264 69 q 292 42 264 42 l 319 42 q 347 69 347 42 l 347 903 q 319 931 347 931 l 292 931 q 264 903 264 931 z "},"я":{"ha":389,"x_min":97,"x_max":292,"o":"m 97 903 q 116 953 97 935 q 167 972 135 972 l 292 972 l 292 0 l 250 0 l 250 139 l 215 139 l 146 0 l 97 0 l 167 139 q 116 158 135 139 q 97 208 97 176 l 97 903 m 139 208 q 167 181 139 181 l 250 181 l 250 931 l 167 931 q 139 903 139 931 l 139 208 z "},"a":{"ha":389,"x_min":97,"x_max":292,"o":"m 97 0 l 174 972 l 215 972 l 292 0 l 250 0 l 239 139 l 150 139 l 139 0 l 97 0 m 236 181 l 194 694 l 153 181 l 236 181 z "},"b":{"ha":389,"x_min":97,"x_max":292,"o":"m 97 972 l 222 972 q 273 953 254 972 q 292 903 292 935 l 292 861 q 274 813 292 833 q 292 764 292 792 l 292 69 q 273 19 292 38 q 222 0 254 0 l 97 0 l 97 972 m 139 792 l 139 42 l 222 42 q 250 69 250 42 l 250 764 q 222 792 250 792 l 139 792 m 139 931 l 139 833 l 222 833 q 250 861 250 833 l 250 903 q 222 931 250 931 l 139 931 z "},"c":{"ha":347,"x_min":97,"x_max":292,"o":"m 167 972 l 222 972 q 273 953 254 972 q 292 903 292 935 l 292 889 l 250 889 l 250 903 q 222 931 250 931 l 167 931 q 139 903 139 931 l 139 69 q 167 42 139 42 l 222 42 q 250 69 250 42 l 250 83 l 292 83 l 292 69 q 273 19 292 38 q 222 0 254 0 l 167 0 q 116 19 135 0 q 97 69 97 38 l 97 903 q 116 953 97 935 q 167 972 135 972 z "},"d":{"ha":389,"x_min":97,"x_max":292,"o":"m 97 0 l 97 972 l 222 972 q 273 953 254 972 q 292 903 292 935 l 292 69 q 273 19 292 38 q 222 0 254 0 l 97 0 m 222 42 q 250 69 250 42 l 250 903 q 222 931 250 931 l 139 931 l 139 42 l 222 42 z "},"e":{"ha":347,"x_min":97,"x_max":292,"o":"m 292 972 l 292 931 l 139 931 l 139 833 l 250 833 l 250 792 l 139 792 l 139 42 l 292 42 l 292 0 l 97 0 l 97 972 l 292 972 z "},"f":{"ha":347,"x_min":97,"x_max":292,"o":"m 292 972 l 292 931 l 139 931 l 139 833 l 250 833 l 250 792 l 139 792 l 139 0 l 97 0 l 97 972 l 292 972 z "},"g":{"ha":389,"x_min":97,"x_max":292,"o":"m 167 972 l 222 972 q 273 953 254 972 q 292 903 292 935 l 292 889 l 250 889 l 250 903 q 222 931 250 931 l 167 931 q 139 903 139 931 l 139 69 q 167 42 139 42 l 222 42 q 250 69 250 42 l 250 792 l 208 792 l 208 833 l 292 833 l 292 69 q 273 19 292 38 q 222 0 254 0 l 167 0 q 116 19 135 0 q 97 69 97 38 l 97 903 q 116 953 97 935 q 167 972 135 972 z "},"h":{"ha":389,"x_min":97,"x_max":292,"o":"m 139 972 l 139 833 l 250 833 l 250 972 l 292 972 l 292 0 l 250 0 l 250 792 l 139 792 l 139 0 l 97 0 l 97 972 l 139 972 z "},"i":{"ha":250,"x_min":104,"x_max":146,"o":"m 104 0 l 104 972 l 146 972 l 146 0 l 104 0 z "},"j":{"ha":347,"x_min":56,"x_max":250,"o":"m 56 69 l 56 83 l 97 83 l 97 69 q 125 42 97 42 l 181 42 q 208 69 208 42 l 208 972 l 250 972 l 250 69 q 231 19 250 38 q 181 0 213 0 l 125 0 q 74 19 93 0 q 56 69 56 38 z "},"k":{"ha":389,"x_min":97,"x_max":292,"o":"m 97 0 l 97 972 l 139 972 l 139 181 l 222 181 q 250 208 250 181 l 250 972 l 292 972 l 292 208 q 273 158 292 176 q 222 139 254 139 l 292 0 l 243 0 l 174 139 l 139 139 l 139 0 l 97 0 z "},"l":{"ha":347,"x_min":97,"x_max":292,"o":"m 97 0 l 97 972 l 139 972 l 139 42 l 292 42 l 292 0 l 97 0 z "},"m":{"ha":486,"x_min":97,"x_max":389,"o":"m 139 972 l 243 174 l 347 972 l 389 972 l 389 0 l 347 0 l 347 660 l 264 0 l 222 0 l 139 660 l 139 0 l 97 0 l 97 972 l 139 972 z "},"n":{"ha":389,"x_min":97,"x_max":292,"o":"m 250 910 l 250 972 l 292 972 l 292 0 l 250 0 l 250 861 l 139 917 l 139 0 l 97 0 l 97 986 l 250 910 z "},"o":{"ha":389,"x_min":97,"x_max":292,"o":"m 97 69 l 97 903 q 116 953 97 935 q 167 972 135 972 l 222 972 q 273 953 254 972 q 292 903 292 935 l 292 69 q 273 19 292 38 q 222 0 254 0 l 167 0 q 116 19 135 0 q 97 69 97 38 m 167 42 l 222 42 q 250 69 250 42 l 250 903 q 222 931 250 931 l 167 931 q 139 903 139 931 l 139 69 q 167 42 139 42 z "},"p":{"ha":389,"x_min":97,"x_max":292,"o":"m 97 972 l 222 972 q 273 953 254 972 q 292 903 292 935 l 292 208 q 273 158 292 176 q 222 139 254 139 l 139 139 l 139 0 l 97 0 l 97 972 m 222 181 q 250 208 250 181 l 250 903 q 222 931 250 931 l 139 931 l 139 181 l 222 181 z "},"q":{"ha":389,"x_min":97,"x_max":292,"o":"m 97 903 q 116 953 97 935 q 167 972 135 972 l 222 972 q 273 953 254 972 q 292 903 292 935 l 292 69 q 278 26 292 43 q 242 3 265 8 l 264 -42 l 215 -42 l 194 0 l 167 0 q 116 19 135 0 q 97 69 97 38 l 97 903 m 139 903 l 139 69 q 167 42 139 42 l 222 42 q 250 69 250 42 l 250 903 q 222 931 250 931 l 167 931 q 139 903 139 931 z "},"r":{"ha":389,"x_min":97,"x_max":292,"o":"m 97 972 l 222 972 q 273 953 254 972 q 292 903 292 935 l 292 208 q 273 158 292 176 q 222 139 254 139 l 292 0 l 243 0 l 174 139 l 139 139 l 139 0 l 97 0 l 97 972 m 222 181 q 250 208 250 181 l 250 903 q 222 931 250 931 l 139 931 l 139 181 l 222 181 z "},"s":{"ha":389,"x_min":97,"x_max":292,"o":"m 97 903 q 116 953 97 935 q 167 972 135 972 l 222 972 q 273 953 254 972 q 292 903 292 935 l 292 889 l 250 889 l 250 903 q 222 931 250 931 l 167 931 q 139 903 139 931 l 139 889 l 292 83 l 292 69 q 273 19 292 38 q 222 0 254 0 l 167 0 q 116 19 135 0 q 97 69 97 38 l 97 83 l 139 83 l 139 69 q 167 42 139 42 l 222 42 q 250 69 250 42 l 250 83 l 97 889 l 97 903 z "},"t":{"ha":306,"x_min":56,"x_max":250,"o":"m 56 972 l 250 972 l 250 931 l 174 931 l 174 0 l 132 0 l 132 931 l 56 931 l 56 972 z "},"u":{"ha":389,"x_min":97,"x_max":292,"o":"m 97 69 l 97 972 l 139 972 l 139 69 q 167 42 139 42 l 222 42 q 250 69 250 42 l 250 972 l 292 972 l 292 69 q 273 19 292 38 q 222 0 254 0 l 167 0 q 116 19 135 0 q 97 69 97 38 z "},"v":{"ha":389,"x_min":97,"x_max":292,"o":"m 97 972 l 139 972 l 194 278 l 250 972 l 292 972 l 215 0 l 174 0 l 97 972 z "},"w":{"ha":486,"x_min":97,"x_max":389,"o":"m 97 972 l 139 972 l 181 278 l 222 972 l 264 972 l 306 278 l 347 972 l 389 972 l 326 0 l 285 0 l 243 649 l 201 0 l 160 0 l 97 972 z "},"x":{"ha":389,"x_min":97,"x_max":292,"o":"m 97 0 l 174 486 l 97 972 l 139 972 l 194 625 l 250 972 l 292 972 l 215 486 l 292 0 l 250 0 l 194 347 l 139 0 l 97 0 z "},"y":{"ha":389,"x_min":97,"x_max":292,"o":"m 139 972 l 194 486 l 250 972 l 292 972 l 215 278 l 215 0 l 174 0 l 174 278 l 97 972 l 139 972 z "},"z":{"ha":389,"x_min":97,"x_max":292,"o":"m 97 0 l 243 931 l 97 931 l 97 972 l 292 972 l 146 42 l 292 42 l 292 0 l 97 0 z "}}}
